<svg xmlns="http://www.w3.org/2000/svg" width="86" height="86" viewBox="0 0 86 86"><defs><style>.a{fill:#f0785f;}.b{fill:#fff1ec;stroke:#fff1ec;stroke-width:1.3px;}</style></defs><g transform="translate(-221 -789)"><circle class="a" cx="43" cy="43" r="43" transform="translate(221 789)"/><g transform="translate(241.95 804.999)"><path class="b" d="M306.748,556.795q4.244-11.528,4.315-18.93a.874.874,0,0,1,1.747.017q-.076,7.27-3.913,18.1a107.349,107.349,0,0,1,35.939.008Q341,545.148,340.92,537.882a.874.874,0,0,1,1.747-.017q.076,7.393,4.315,18.93,5.287,14.362-5.366,37.365a.874.874,0,1,1-1.587-.732q6.734-14.59,6.945-25.443a11,11,0,0,0-7.9-3.024c-6.006,0-9.906,2.318-11.359,7.973a61.753,61.753,0,0,1-3.547,21.159.874.874,0,0,1-1.643-.6,60.009,60.009,0,0,0,3.443-20.563c-1.454-5.654-5.353-7.972-11.359-7.972a11,11,0,0,0-7.857,2.984q.21,10.866,6.946,25.484a.874.874,0,1,1-1.587.732Q305.13,579.028,305,567.635A30.35,30.35,0,0,1,306.748,556.795Zm7.864,6.418c5.843,0,10.11,2.079,12.232,6.892,2.122-4.813,6.39-6.892,12.232-6.892a12.882,12.882,0,0,1,7.872,2.468,27.8,27.8,0,0,0-1.431-7.8,105.694,105.694,0,0,0-37.3-.009,27.738,27.738,0,0,0-1.432,7.771A12.887,12.887,0,0,1,314.611,563.212Zm12.232-15.29a1.311,1.311,0,1,1,1.311-1.311A1.311,1.311,0,0,1,326.844,547.922Z" transform="translate(-305 -537)"/></g></g></svg>