<svg xmlns="http://www.w3.org/2000/svg" width="86" height="86" viewBox="0 0 86 86"><defs><style>.a{fill:#f0785f;}.b{fill:#fff1ec;}</style></defs><g transform="translate(-221 -789)"><circle class="a" cx="43" cy="43" r="43" transform="translate(221 789)"/><g transform="translate(238.344 868.633) rotate(-90)"><path class="b" d="M56.112,25.557a.792.792,0,0,0,.542-.246,1.078,1.078,0,0,0,.148-.246.861.861,0,0,0-.148-.838l-4.387-4.88a.816.816,0,0,0-.592-.246.909.909,0,0,0-.592.246L46.7,24.226a.861.861,0,0,0-.148.838.7.7,0,0,0,.69.444h2.366V43.056H47.239a.773.773,0,0,0-.69.444.861.861,0,0,0,.148.838l4.387,4.88a.816.816,0,0,0,.592.246.792.792,0,0,0,.542-.246l.049-.049,4.387-4.88a.861.861,0,0,0,.148-.838.7.7,0,0,0-.69-.444H53.746V25.557Z" transform="translate(-11.359 -8.418)"/><path class="b" d="M49.633,4.866V3.141a.652.652,0,0,0-.641-.641H24.741a.652.652,0,0,0-.641.641V48.687a.652.652,0,0,0,.641.641H48.992a.652.652,0,0,0,.641-.641V46.961a.652.652,0,0,0-.641-.641H27.107V41.983H32.43a.652.652,0,0,0,.641-.641V39.617a.652.652,0,0,0-.641-.641H27.107V34.638h3.2A.652.652,0,0,0,30.952,34V32.272a.652.652,0,0,0-.641-.641h-3.2V27.392h3.2a.652.652,0,0,0,.641-.641V25.026a.652.652,0,0,0-.641-.641h-3.2V20.048h3.2a.652.652,0,0,0,.641-.641V17.682a.652.652,0,0,0-.641-.641h-3.2V12.7H32.43a.652.652,0,0,0,.641-.641V10.337A.652.652,0,0,0,32.43,9.7H27.107V5.458H48.993A.611.611,0,0,0,49.633,4.866Z"/></g></g></svg>